solid OpenSCAD_Model
  facet normal -1 0 0
    outer loop
      vertex 15 5 4
      vertex 15 15 12
      vertex 15 15 4
    endloop
  endfacet
  facet normal -1 -0 0
    outer loop
      vertex 15 15 12
      vertex 15 5 4
      vertex 15 5 12
    endloop
  endfacet
  facet normal -0 0 1
    outer loop
      vertex 15 15 12
      vertex 17 5 12
      vertex 17 15 12
    endloop
  endfacet
  facet normal 0 0 1
    outer loop
      vertex 17 5 12
      vertex 15 15 12
      vertex 15 5 12
    endloop
  endfacet
  facet normal -0 0 1
    outer loop
      vertex 37 15 12
      vertex 39 5 12
      vertex 39 15 12
    endloop
  endfacet
  facet normal 0 0 1
    outer loop
      vertex 39 5 12
      vertex 37 15 12
      vertex 37 5 12
    endloop
  endfacet
  facet normal 1 0 0
    outer loop
      vertex 39 5 4
      vertex 39 15 12
      vertex 39 5 12
    endloop
  endfacet
  facet normal 1 0 0
    outer loop
      vertex 39 15 12
      vertex 39 5 4
      vertex 39 15 0
    endloop
  endfacet
  facet normal 1 0 0
    outer loop
      vertex 39 0 0
      vertex 39 5 4
      vertex 39 0 4
    endloop
  endfacet
  facet normal 1 0 0
    outer loop
      vertex 39 5 4
      vertex 39 0 0
      vertex 39 15 0
    endloop
  endfacet
  facet normal 0 0 -1
    outer loop
      vertex 39 0 0
      vertex 13.25 7.5 0
      vertex 39 15 0
    endloop
  endfacet
  facet normal 0 0 -1
    outer loop
      vertex 39 0 0
      vertex 12.7341 5.74292 0
      vertex 13.25 7.5 0
    endloop
  endfacet
  facet normal 0 0 -1
    outer loop
      vertex 39 0 0
      vertex 11.3501 4.5437 0
      vertex 12.7341 5.74292 0
    endloop
  endfacet
  facet normal 0 0 -1
    outer loop
      vertex 0 0 0
      vertex 11.3501 4.5437 0
      vertex 39 0 0
    endloop
  endfacet
  facet normal -0 0 -1
    outer loop
      vertex 6.88165 6.58437 0
      vertex 0 0 0
      vertex 6.88165 8.41563 0
    endloop
  endfacet
  facet normal -0 0 -1
    outer loop
      vertex 7.8717 5.04381 0
      vertex 0 0 0
      vertex 6.88165 6.58437 0
    endloop
  endfacet
  facet normal -0 0 -1
    outer loop
      vertex 9.53748 4.28308 0
      vertex 0 0 0
      vertex 7.8717 5.04381 0
    endloop
  endfacet
  facet normal 0 0 -1
    outer loop
      vertex 11.3501 4.5437 0
      vertex 0 0 0
      vertex 9.53748 4.28308 0
    endloop
  endfacet
  facet normal 0 0 -1
    outer loop
      vertex 12.7341 9.25708 0
      vertex 39 15 0
      vertex 13.25 7.5 0
    endloop
  endfacet
  facet normal 0 0 -1
    outer loop
      vertex 11.3501 10.4563 0
      vertex 39 15 0
      vertex 12.7341 9.25708 0
    endloop
  endfacet
  facet normal 0 0 -1
    outer loop
      vertex 0 15 0
      vertex 11.3501 10.4563 0
      vertex 9.53748 10.7169 0
    endloop
  endfacet
  facet normal 0 0 -1
    outer loop
      vertex 0 15 0
      vertex 6.88165 8.41563 0
      vertex 0 0 0
    endloop
  endfacet
  facet normal 0 0 -1
    outer loop
      vertex 11.3501 10.4563 0
      vertex 0 15 0
      vertex 39 15 0
    endloop
  endfacet
  facet normal 0 0 -1
    outer loop
      vertex 7.8717 9.95619 0
      vertex 0 15 0
      vertex 9.53748 10.7169 0
    endloop
  endfacet
  facet normal 0 0 -1
    outer loop
      vertex 6.88165 8.41563 0
      vertex 0 15 0
      vertex 7.8717 9.95619 0
    endloop
  endfacet
  facet normal 0 -1 0
    outer loop
      vertex 15 5 12
      vertex 16.5 5 10.5
      vertex 17 5 12
    endloop
  endfacet
  facet normal 0 -1 0
    outer loop
      vertex 15 5 4
      vertex 16.5 5 10.5
      vertex 15 5 12
    endloop
  endfacet
  facet normal 0 -1 -0
    outer loop
      vertex 16.5 5 10.5
      vertex 15 5 4
      vertex 16.5 5 4
    endloop
  endfacet
  facet normal 0 -1 -0
    outer loop
      vertex 17 5 12
      vertex 16.5 5 10.5
      vertex 17 5 10.5
    endloop
  endfacet
  facet normal 0 -1 0
    outer loop
      vertex 37.5 5 10.5
      vertex 37 5 12
      vertex 37 5 10.5
    endloop
  endfacet
  facet normal 0 -1 0
    outer loop
      vertex 37 5 12
      vertex 37.5 5 10.5
      vertex 39 5 12
    endloop
  endfacet
  facet normal 0 -1 0
    outer loop
      vertex 39 5 4
      vertex 37.5 5 10.5
      vertex 37.5 5 4
    endloop
  endfacet
  facet normal 0 -1 0
    outer loop
      vertex 37.5 5 10.5
      vertex 39 5 4
      vertex 39 5 12
    endloop
  endfacet
  facet normal 0 1 0
    outer loop
      vertex 39 15 12
      vertex 37.5 15 10.5
      vertex 37 15 12
    endloop
  endfacet
  facet normal 0 1 0
    outer loop
      vertex 39 15 12
      vertex 37.5 15 4
      vertex 37.5 15 10.5
    endloop
  endfacet
  facet normal 0 1 0
    outer loop
      vertex 39 15 0
      vertex 16.5 15 4
      vertex 37.5 15 4
    endloop
  endfacet
  facet normal 0 1 0
    outer loop
      vertex 0 15 0
      vertex 16.5 15 4
      vertex 39 15 0
    endloop
  endfacet
  facet normal 0 1 -0
    outer loop
      vertex 39 15 0
      vertex 37.5 15 4
      vertex 39 15 12
    endloop
  endfacet
  facet normal 0 1 0
    outer loop
      vertex 16.5 15 4
      vertex 0 15 0
      vertex 15 15 4
    endloop
  endfacet
  facet normal 0 1 0
    outer loop
      vertex 15 15 4
      vertex 0 15 0
      vertex 0 15 4
    endloop
  endfacet
  facet normal 0 1 0
    outer loop
      vertex 37 15 12
      vertex 37.5 15 10.5
      vertex 37 15 10.5
    endloop
  endfacet
  facet normal 0 1 0
    outer loop
      vertex 16.5 15 10.5
      vertex 17 15 12
      vertex 17 15 10.5
    endloop
  endfacet
  facet normal 0 1 0
    outer loop
      vertex 17 15 12
      vertex 16.5 15 10.5
      vertex 15 15 12
    endloop
  endfacet
  facet normal 0 1 0
    outer loop
      vertex 15 15 4
      vertex 16.5 15 10.5
      vertex 16.5 15 4
    endloop
  endfacet
  facet normal 0 1 0
    outer loop
      vertex 16.5 15 10.5
      vertex 15 15 4
      vertex 15 15 12
    endloop
  endfacet
  facet normal 1 -0 0
    outer loop
      vertex 17 5 12
      vertex 17 15 10.5
      vertex 17 15 12
    endloop
  endfacet
  facet normal 1 0 0
    outer loop
      vertex 17 15 10.5
      vertex 17 5 12
      vertex 17 5 10.5
    endloop
  endfacet
  facet normal -1 0 0
    outer loop
      vertex 37 5 10.5
      vertex 37 15 12
      vertex 37 15 10.5
    endloop
  endfacet
  facet normal -1 -0 0
    outer loop
      vertex 37 15 12
      vertex 37 5 10.5
      vertex 37 5 12
    endloop
  endfacet
  facet normal 0 0 1
    outer loop
      vertex 22.1318 8.71329 6
      vertex 22.1318 7.28671 6
      vertex 22.65 8 6
    endloop
  endfacet
  facet normal -0 0 1
    outer loop
      vertex 21.2932 8.44084 6
      vertex 22.1318 7.28671 6
      vertex 22.1318 8.71329 6
    endloop
  endfacet
  facet normal 0 0 1
    outer loop
      vertex 22.1318 7.28671 6
      vertex 21.2932 8.44084 6
      vertex 21.2932 7.55916 6
    endloop
  endfacet
  facet normal 0 0 1
    outer loop
      vertex 32.5318 8.71329 6
      vertex 32.5318 7.28671 6
      vertex 33.05 8 6
    endloop
  endfacet
  facet normal -0 0 1
    outer loop
      vertex 31.6932 8.44084 6
      vertex 32.5318 7.28671 6
      vertex 32.5318 8.71329 6
    endloop
  endfacet
  facet normal 0 0 1
    outer loop
      vertex 32.5318 7.28671 6
      vertex 31.6932 8.44084 6
      vertex 31.6932 7.55916 6
    endloop
  endfacet
  facet normal -1 0 0
    outer loop
      vertex 0 0 0
      vertex 0 15 4
      vertex 0 15 0
    endloop
  endfacet
  facet normal -1 -0 0
    outer loop
      vertex 0 15 4
      vertex 0 0 0
      vertex 0 0 4
    endloop
  endfacet
  facet normal 0 0 1
    outer loop
      vertex 15 15 4
      vertex 13.25 7.5 4
      vertex 15 5 4
    endloop
  endfacet
  facet normal 0 0 1
    outer loop
      vertex 15 15 4
      vertex 12.7341 9.25708 4
      vertex 13.25 7.5 4
    endloop
  endfacet
  facet normal 0 0 1
    outer loop
      vertex 15 15 4
      vertex 11.3501 10.4563 4
      vertex 12.7341 9.25708 4
    endloop
  endfacet
  facet normal 0 0 1
    outer loop
      vertex 15 15 4
      vertex 9.53748 10.7169 4
      vertex 11.3501 10.4563 4
    endloop
  endfacet
  facet normal -0 0 1
    outer loop
      vertex 0 15 4
      vertex 9.53748 10.7169 4
      vertex 15 15 4
    endloop
  endfacet
  facet normal 0 0 1
    outer loop
      vertex 6.88165 8.41563 4
      vertex 0 15 4
      vertex 6.88165 6.58437 4
    endloop
  endfacet
  facet normal 0 0 1
    outer loop
      vertex 7.8717 9.95619 4
      vertex 0 15 4
      vertex 6.88165 8.41563 4
    endloop
  endfacet
  facet normal 0 0 1
    outer loop
      vertex 9.53748 10.7169 4
      vertex 0 15 4
      vertex 7.8717 9.95619 4
    endloop
  endfacet
  facet normal -0 0 1
    outer loop
      vertex 37.5 5 4
      vertex 39 0 4
      vertex 39 5 4
    endloop
  endfacet
  facet normal -0 0 1
    outer loop
      vertex 16.5 5 4
      vertex 39 0 4
      vertex 37.5 5 4
    endloop
  endfacet
  facet normal 0 0 1
    outer loop
      vertex 11.3501 4.5437 4
      vertex 16.5 5 4
      vertex 15 5 4
    endloop
  endfacet
  facet normal -0 0 1
    outer loop
      vertex 12.7341 5.74292 4
      vertex 15 5 4
      vertex 13.25 7.5 4
    endloop
  endfacet
  facet normal 0 0 1
    outer loop
      vertex 11.3501 4.5437 4
      vertex 15 5 4
      vertex 12.7341 5.74292 4
    endloop
  endfacet
  facet normal 0 0 1
    outer loop
      vertex 16.5 5 4
      vertex 11.3501 4.5437 4
      vertex 0 0 4
    endloop
  endfacet
  facet normal 0 0 1
    outer loop
      vertex 0 0 4
      vertex 11.3501 4.5437 4
      vertex 9.53748 4.28308 4
    endloop
  endfacet
  facet normal 0 0 1
    outer loop
      vertex 0 0 4
      vertex 6.88165 6.58437 4
      vertex 0 15 4
    endloop
  endfacet
  facet normal 0 0 1
    outer loop
      vertex 16.5 5 4
      vertex 0 0 4
      vertex 39 0 4
    endloop
  endfacet
  facet normal 0 0 1
    outer loop
      vertex 7.8717 5.04381 4
      vertex 0 0 4
      vertex 9.53748 4.28308 4
    endloop
  endfacet
  facet normal 0 0 1
    outer loop
      vertex 6.88165 6.58437 4
      vertex 0 0 4
      vertex 7.8717 5.04381 4
    endloop
  endfacet
  facet normal 0 -1 0
    outer loop
      vertex 0 0 0
      vertex 39 0 4
      vertex 0 0 4
    endloop
  endfacet
  facet normal 0 -1 -0
    outer loop
      vertex 39 0 4
      vertex 0 0 0
      vertex 39 0 0
    endloop
  endfacet
  facet normal 1 -0 0
    outer loop
      vertex 16.5 5 10.5
      vertex 16.5 15 4
      vertex 16.5 15 10.5
    endloop
  endfacet
  facet normal 1 0 0
    outer loop
      vertex 16.5 15 4
      vertex 16.5 5 10.5
      vertex 16.5 5 4
    endloop
  endfacet
  facet normal 0 0 -1
    outer loop
      vertex 16.5 5 10.5
      vertex 17 15 10.5
      vertex 17 5 10.5
    endloop
  endfacet
  facet normal -0 0 -1
    outer loop
      vertex 17 15 10.5
      vertex 16.5 5 10.5
      vertex 16.5 15 10.5
    endloop
  endfacet
  facet normal 0 0 -1
    outer loop
      vertex 37 5 10.5
      vertex 37.5 15 10.5
      vertex 37.5 5 10.5
    endloop
  endfacet
  facet normal -0 0 -1
    outer loop
      vertex 37.5 15 10.5
      vertex 37 5 10.5
      vertex 37 15 10.5
    endloop
  endfacet
  facet normal -1 0 0
    outer loop
      vertex 37.5 5 4
      vertex 37.5 15 10.5
      vertex 37.5 15 4
    endloop
  endfacet
  facet normal -1 -0 0
    outer loop
      vertex 37.5 15 10.5
      vertex 37.5 5 4
      vertex 37.5 5 10.5
    endloop
  endfacet
  facet normal 0 0 1
    outer loop
      vertex 37.5 15 4
      vertex 33.05 8 4
      vertex 37.5 5 4
    endloop
  endfacet
  facet normal 0 0 1
    outer loop
      vertex 37.5 15 4
      vertex 32.5318 8.71329 4
      vertex 33.05 8 4
    endloop
  endfacet
  facet normal 0 0 1
    outer loop
      vertex 37.5 15 4
      vertex 31.6932 8.44084 4
      vertex 32.5318 8.71329 4
    endloop
  endfacet
  facet normal 0 0 1
    outer loop
      vertex 31.6932 8.44084 4
      vertex 22.65 8 4
      vertex 31.6932 7.55916 4
    endloop
  endfacet
  facet normal -0 0 1
    outer loop
      vertex 22.1318 8.71329 4
      vertex 31.6932 8.44084 4
      vertex 37.5 15 4
    endloop
  endfacet
  facet normal 0 0 1
    outer loop
      vertex 31.6932 8.44084 4
      vertex 22.1318 8.71329 4
      vertex 22.65 8 4
    endloop
  endfacet
  facet normal -0 0 1
    outer loop
      vertex 16.5 15 4
      vertex 22.1318 8.71329 4
      vertex 37.5 15 4
    endloop
  endfacet
  facet normal 0 0 1
    outer loop
      vertex 16.5 5 4
      vertex 21.2932 8.44084 4
      vertex 16.5 15 4
    endloop
  endfacet
  facet normal 0 0 1
    outer loop
      vertex 22.1318 8.71329 4
      vertex 16.5 15 4
      vertex 21.2932 8.44084 4
    endloop
  endfacet
  facet normal -0 0 1
    outer loop
      vertex 32.5318 7.28671 4
      vertex 37.5 5 4
      vertex 33.05 8 4
    endloop
  endfacet
  facet normal 0 0 1
    outer loop
      vertex 22.1318 7.28671 4
      vertex 32.5318 7.28671 4
      vertex 31.6932 7.55916 4
    endloop
  endfacet
  facet normal 0 0 1
    outer loop
      vertex 22.1318 7.28671 4
      vertex 31.6932 7.55916 4
      vertex 22.65 8 4
    endloop
  endfacet
  facet normal 0 0 1
    outer loop
      vertex 32.5318 7.28671 4
      vertex 22.1318 7.28671 4
      vertex 37.5 5 4
    endloop
  endfacet
  facet normal 0 0 1
    outer loop
      vertex 22.1318 7.28671 4
      vertex 16.5 5 4
      vertex 37.5 5 4
    endloop
  endfacet
  facet normal 0 0 1
    outer loop
      vertex 21.2932 7.55916 4
      vertex 16.5 5 4
      vertex 22.1318 7.28671 4
    endloop
  endfacet
  facet normal 0 0 1
    outer loop
      vertex 21.2932 8.44084 4
      vertex 16.5 5 4
      vertex 21.2932 7.55916 4
    endloop
  endfacet
  facet normal 0.809017 0.587785 0
    outer loop
      vertex 22.65 8 6
      vertex 22.1318 8.71329 4
      vertex 22.1318 8.71329 6
    endloop
  endfacet
  facet normal 0.809017 0.587785 0
    outer loop
      vertex 22.1318 8.71329 4
      vertex 22.65 8 6
      vertex 22.65 8 4
    endloop
  endfacet
  facet normal -1 0 0
    outer loop
      vertex 21.2932 7.55916 4
      vertex 21.2932 8.44084 6
      vertex 21.2932 8.44084 4
    endloop
  endfacet
  facet normal -1 -0 0
    outer loop
      vertex 21.2932 8.44084 6
      vertex 21.2932 7.55916 4
      vertex 21.2932 7.55916 6
    endloop
  endfacet
  facet normal -0.309016 0.951057 0
    outer loop
      vertex 22.1318 8.71329 4
      vertex 21.2932 8.44084 6
      vertex 22.1318 8.71329 6
    endloop
  endfacet
  facet normal -0.309016 0.951057 0
    outer loop
      vertex 21.2932 8.44084 6
      vertex 22.1318 8.71329 4
      vertex 21.2932 8.44084 4
    endloop
  endfacet
  facet normal -0.309016 -0.951057 0
    outer loop
      vertex 21.2932 7.55916 4
      vertex 22.1318 7.28671 6
      vertex 21.2932 7.55916 6
    endloop
  endfacet
  facet normal -0.309016 -0.951057 -0
    outer loop
      vertex 22.1318 7.28671 6
      vertex 21.2932 7.55916 4
      vertex 22.1318 7.28671 4
    endloop
  endfacet
  facet normal 0.809017 -0.587785 0
    outer loop
      vertex 22.1318 7.28671 6
      vertex 22.65 8 4
      vertex 22.65 8 6
    endloop
  endfacet
  facet normal 0.809017 -0.587785 0
    outer loop
      vertex 22.65 8 4
      vertex 22.1318 7.28671 6
      vertex 22.1318 7.28671 4
    endloop
  endfacet
  facet normal 0.809016 0.587786 0
    outer loop
      vertex 33.05 8 6
      vertex 32.5318 8.71329 4
      vertex 32.5318 8.71329 6
    endloop
  endfacet
  facet normal 0.809016 0.587786 0
    outer loop
      vertex 32.5318 8.71329 4
      vertex 33.05 8 6
      vertex 33.05 8 4
    endloop
  endfacet
  facet normal -1 0 0
    outer loop
      vertex 31.6932 7.55916 4
      vertex 31.6932 8.44084 6
      vertex 31.6932 8.44084 4
    endloop
  endfacet
  facet normal -1 -0 0
    outer loop
      vertex 31.6932 8.44084 6
      vertex 31.6932 7.55916 4
      vertex 31.6932 7.55916 6
    endloop
  endfacet
  facet normal -0.309017 0.951056 0
    outer loop
      vertex 32.5318 8.71329 4
      vertex 31.6932 8.44084 6
      vertex 32.5318 8.71329 6
    endloop
  endfacet
  facet normal -0.309017 0.951056 0
    outer loop
      vertex 31.6932 8.44084 6
      vertex 32.5318 8.71329 4
      vertex 31.6932 8.44084 4
    endloop
  endfacet
  facet normal -0.309017 -0.951056 0
    outer loop
      vertex 31.6932 7.55916 4
      vertex 32.5318 7.28671 6
      vertex 31.6932 7.55916 6
    endloop
  endfacet
  facet normal -0.309017 -0.951056 -0
    outer loop
      vertex 32.5318 7.28671 6
      vertex 31.6932 7.55916 4
      vertex 32.5318 7.28671 4
    endloop
  endfacet
  facet normal 0.809016 -0.587786 0
    outer loop
      vertex 32.5318 7.28671 6
      vertex 33.05 8 4
      vertex 33.05 8 6
    endloop
  endfacet
  facet normal 0.809016 -0.587786 0
    outer loop
      vertex 33.05 8 4
      vertex 32.5318 7.28671 6
      vertex 32.5318 7.28671 4
    endloop
  endfacet
  facet normal -0.959493 -0.281733 0
    outer loop
      vertex 13.25 7.5 0
      vertex 12.7341 9.25708 4
      vertex 12.7341 9.25708 0
    endloop
  endfacet
  facet normal -0.959493 -0.281733 0
    outer loop
      vertex 12.7341 9.25708 4
      vertex 13.25 7.5 0
      vertex 13.25 7.5 4
    endloop
  endfacet
  facet normal 1 -0 0
    outer loop
      vertex 6.88165 6.58437 4
      vertex 6.88165 8.41563 0
      vertex 6.88165 8.41563 4
    endloop
  endfacet
  facet normal 1 0 0
    outer loop
      vertex 6.88165 8.41563 0
      vertex 6.88165 6.58437 4
      vertex 6.88165 6.58437 0
    endloop
  endfacet
  facet normal -0.142315 -0.989821 0
    outer loop
      vertex 9.53748 10.7169 0
      vertex 11.3501 10.4563 4
      vertex 9.53748 10.7169 4
    endloop
  endfacet
  facet normal -0.142315 -0.989821 -0
    outer loop
      vertex 11.3501 10.4563 4
      vertex 9.53748 10.7169 0
      vertex 11.3501 10.4563 0
    endloop
  endfacet
  facet normal -0.654861 -0.755749 0
    outer loop
      vertex 11.3501 10.4563 0
      vertex 12.7341 9.25708 4
      vertex 11.3501 10.4563 4
    endloop
  endfacet
  facet normal -0.654861 -0.755749 -0
    outer loop
      vertex 12.7341 9.25708 4
      vertex 11.3501 10.4563 0
      vertex 12.7341 9.25708 0
    endloop
  endfacet
  facet normal -0.654861 0.755749 0
    outer loop
      vertex 12.7341 5.74292 0
      vertex 11.3501 4.5437 4
      vertex 12.7341 5.74292 4
    endloop
  endfacet
  facet normal -0.654861 0.755749 0
    outer loop
      vertex 11.3501 4.5437 4
      vertex 12.7341 5.74292 0
      vertex 11.3501 4.5437 0
    endloop
  endfacet
  facet normal 0.841253 -0.540641 0
    outer loop
      vertex 6.88165 8.41563 4
      vertex 7.8717 9.95619 0
      vertex 7.8717 9.95619 4
    endloop
  endfacet
  facet normal 0.841253 -0.540641 0
    outer loop
      vertex 7.8717 9.95619 0
      vertex 6.88165 8.41563 4
      vertex 6.88165 8.41563 0
    endloop
  endfacet
  facet normal 0.415415 -0.909632 0
    outer loop
      vertex 7.8717 9.95619 0
      vertex 9.53748 10.7169 4
      vertex 7.8717 9.95619 4
    endloop
  endfacet
  facet normal 0.415415 -0.909632 0
    outer loop
      vertex 9.53748 10.7169 4
      vertex 7.8717 9.95619 0
      vertex 9.53748 10.7169 0
    endloop
  endfacet
  facet normal -0.959493 0.281733 0
    outer loop
      vertex 12.7341 5.74292 0
      vertex 13.25 7.5 4
      vertex 13.25 7.5 0
    endloop
  endfacet
  facet normal -0.959493 0.281733 0
    outer loop
      vertex 13.25 7.5 4
      vertex 12.7341 5.74292 0
      vertex 12.7341 5.74292 4
    endloop
  endfacet
  facet normal -0.142315 0.989821 0
    outer loop
      vertex 11.3501 4.5437 0
      vertex 9.53748 4.28308 4
      vertex 11.3501 4.5437 4
    endloop
  endfacet
  facet normal -0.142315 0.989821 0
    outer loop
      vertex 9.53748 4.28308 4
      vertex 11.3501 4.5437 0
      vertex 9.53748 4.28308 0
    endloop
  endfacet
  facet normal 0.841253 0.540641 0
    outer loop
      vertex 7.8717 5.04381 4
      vertex 6.88165 6.58437 0
      vertex 6.88165 6.58437 4
    endloop
  endfacet
  facet normal 0.841253 0.540641 0
    outer loop
      vertex 6.88165 6.58437 0
      vertex 7.8717 5.04381 4
      vertex 7.8717 5.04381 0
    endloop
  endfacet
  facet normal 0.415415 0.909632 -0
    outer loop
      vertex 9.53748 4.28308 0
      vertex 7.8717 5.04381 4
      vertex 9.53748 4.28308 4
    endloop
  endfacet
  facet normal 0.415415 0.909632 0
    outer loop
      vertex 7.8717 5.04381 4
      vertex 9.53748 4.28308 0
      vertex 7.8717 5.04381 0
    endloop
  endfacet
endsolid OpenSCAD_Model
