solid OpenSCAD_Model
  facet normal -0.000000 0.000000 -1.000000
    outer loop
      vertex -10.500000 0.000000 0.000000
      vertex -10.270550 2.183073 0.000000
      vertex -10.270550 -2.183073 0.000000
    endloop
  endfacet
  facet normal 0.000000 -0.000000 -1.000000
    outer loop
      vertex -10.270550 -2.183073 0.000000
      vertex -10.270550 2.183073 0.000000
      vertex -9.592227 4.270735 0.000000
    endloop
  endfacet
  facet normal 0.000000 0.000000 -1.000000
    outer loop
      vertex -10.270550 -2.183073 0.000000
      vertex -9.592227 4.270735 0.000000
      vertex -8.494678 6.171745 0.000000
    endloop
  endfacet
  facet normal 0.000000 0.000000 -1.000000
    outer loop
      vertex -10.270550 -2.183073 0.000000
      vertex -8.494678 6.171745 0.000000
      vertex -7.025871 7.803021 0.000000
    endloop
  endfacet
  facet normal 0.000000 0.000000 -1.000000
    outer loop
      vertex -10.270550 -2.183073 0.000000
      vertex -7.025871 7.803021 0.000000
      vertex -5.250000 9.093267 0.000000
    endloop
  endfacet
  facet normal 0.000000 0.000000 -1.000000
    outer loop
      vertex -10.270550 -2.183073 0.000000
      vertex -5.250000 9.093267 0.000000
      vertex -3.244678 9.986093 0.000000
    endloop
  endfacet
  facet normal 0.000000 0.000000 -1.000000
    outer loop
      vertex -10.270550 -2.183073 0.000000
      vertex -3.244678 9.986093 0.000000
      vertex -1.097549 10.442480 0.000000
    endloop
  endfacet
  facet normal 0.000000 0.000000 -1.000000
    outer loop
      vertex -10.270550 -2.183073 0.000000
      vertex -1.097549 10.442480 0.000000
      vertex 1.097549 10.442480 0.000000
    endloop
  endfacet
  facet normal 0.000000 0.000000 -1.000000
    outer loop
      vertex -10.270550 -2.183073 0.000000
      vertex 1.097549 10.442480 0.000000
      vertex 3.244678 9.986093 0.000000
    endloop
  endfacet
  facet normal 0.000000 0.000000 -1.000000
    outer loop
      vertex -10.270550 -2.183073 0.000000
      vertex 3.244678 9.986093 0.000000
      vertex 5.250000 9.093267 0.000000
    endloop
  endfacet
  facet normal 0.000000 0.000000 -1.000000
    outer loop
      vertex -10.270550 -2.183073 0.000000
      vertex 5.250000 9.093267 0.000000
      vertex 7.025871 7.803021 0.000000
    endloop
  endfacet
  facet normal 0.000000 0.000000 -1.000000
    outer loop
      vertex 0.927051 2.853170 0.000000
      vertex 7.025871 7.803021 0.000000
      vertex 8.494678 6.171745 0.000000
    endloop
  endfacet
  facet normal 0.000000 0.000000 -1.000000
    outer loop
      vertex 2.121320 2.121320 0.000000
      vertex 8.494678 6.171745 0.000000
      vertex 9.592227 4.270735 0.000000
    endloop
  endfacet
  facet normal 0.000000 0.000000 -1.000000
    outer loop
      vertex 2.673020 1.361971 0.000000
      vertex 9.592227 4.270735 0.000000
      vertex 10.270550 2.183073 0.000000
    endloop
  endfacet
  facet normal 0.000000 0.000000 -1.000000
    outer loop
      vertex 2.963065 -0.469303 0.000000
      vertex 10.270550 2.183073 0.000000
      vertex 10.500000 0.000000 0.000000
    endloop
  endfacet
  facet normal -0.000000 0.000000 -1.000000
    outer loop
      vertex 2.427051 -1.763356 0.000000
      vertex 10.500000 0.000000 0.000000
      vertex 10.270550 -2.183073 0.000000
    endloop
  endfacet
  facet normal -0.000000 0.000000 -1.000000
    outer loop
      vertex 0.927051 -2.853170 0.000000
      vertex 10.270550 -2.183073 0.000000
      vertex 9.592227 -4.270735 0.000000
    endloop
  endfacet
  facet normal 0.000000 0.000000 -1.000000
    outer loop
      vertex -10.270550 -2.183073 0.000000
      vertex 9.592227 -4.270735 0.000000
      vertex 8.494678 -6.171745 0.000000
    endloop
  endfacet
  facet normal 0.000000 0.000000 -1.000000
    outer loop
      vertex -10.270550 -2.183073 0.000000
      vertex 8.494678 -6.171745 0.000000
      vertex 7.025871 -7.803021 0.000000
    endloop
  endfacet
  facet normal 0.000000 0.000000 -1.000000
    outer loop
      vertex -10.270550 -2.183073 0.000000
      vertex 7.025871 -7.803021 0.000000
      vertex 5.250000 -9.093267 0.000000
    endloop
  endfacet
  facet normal 0.000000 0.000000 -1.000000
    outer loop
      vertex -10.270550 -2.183073 0.000000
      vertex 5.250000 -9.093267 0.000000
      vertex 3.244678 -9.986093 0.000000
    endloop
  endfacet
  facet normal 0.000000 0.000000 -1.000000
    outer loop
      vertex -10.270550 -2.183073 0.000000
      vertex 3.244678 -9.986093 0.000000
      vertex 1.097549 -10.442480 0.000000
    endloop
  endfacet
  facet normal 0.000000 0.000000 -1.000000
    outer loop
      vertex -10.270550 -2.183073 0.000000
      vertex 1.097549 -10.442480 0.000000
      vertex -1.097549 -10.442480 0.000000
    endloop
  endfacet
  facet normal 0.000000 0.000000 -1.000000
    outer loop
      vertex -10.270550 -2.183073 0.000000
      vertex -1.097549 -10.442480 0.000000
      vertex -3.244678 -9.986093 0.000000
    endloop
  endfacet
  facet normal 0.000000 0.000000 -1.000000
    outer loop
      vertex -10.270550 -2.183073 0.000000
      vertex -3.244678 -9.986093 0.000000
      vertex -5.250000 -9.093267 0.000000
    endloop
  endfacet
  facet normal 0.000000 0.000000 -1.000000
    outer loop
      vertex -10.270550 -2.183073 0.000000
      vertex -5.250000 -9.093267 0.000000
      vertex -7.025871 -7.803021 0.000000
    endloop
  endfacet
  facet normal 0.000000 0.000000 -1.000000
    outer loop
      vertex -10.270550 -2.183073 0.000000
      vertex -7.025871 -7.803021 0.000000
      vertex -8.494678 -6.171745 0.000000
    endloop
  endfacet
  facet normal 0.000000 0.000000 -1.000000
    outer loop
      vertex -10.270550 -2.183073 0.000000
      vertex -8.494678 -6.171745 0.000000
      vertex -9.592227 -4.270735 0.000000
    endloop
  endfacet
  facet normal 0.000000 0.000000 -1.000000
    outer loop
      vertex -2.853170 -0.927051 0.000000
      vertex -10.270550 -2.183073 0.000000
      vertex -2.963065 -0.469303 0.000000
    endloop
  endfacet
  facet normal 0.000000 0.000000 -1.000000
    outer loop
      vertex -10.270550 -2.183073 0.000000
      vertex -3.000000 0.000000 0.000000
      vertex -2.963065 -0.469303 0.000000
    endloop
  endfacet
  facet normal -0.000000 0.000000 -1.000000
    outer loop
      vertex 2.853170 0.927051 0.000000
      vertex 10.270550 2.183073 0.000000
      vertex 2.963065 0.469303 0.000000
    endloop
  endfacet
  facet normal 0.000000 0.000000 -1.000000
    outer loop
      vertex -10.270550 -2.183073 0.000000
      vertex -2.853170 -0.927051 0.000000
      vertex -2.673020 -1.361971 0.000000
    endloop
  endfacet
  facet normal -0.000000 0.000000 -1.000000
    outer loop
      vertex 2.963065 -0.469303 0.000000
      vertex 10.500000 0.000000 0.000000
      vertex 2.853170 -0.927051 0.000000
    endloop
  endfacet
  facet normal 0.000000 0.000000 -1.000000
    outer loop
      vertex -10.270550 -2.183073 0.000000
      vertex -2.427051 -1.763356 0.000000
      vertex -2.121320 -2.121320 0.000000
    endloop
  endfacet
  facet normal 0.000000 0.000000 -1.000000
    outer loop
      vertex 0.469303 -2.963065 0.000000
      vertex 9.592227 -4.270735 0.000000
      vertex 0.000000 -3.000000 0.000000
    endloop
  endfacet
  facet normal 0.000000 0.000000 -1.000000
    outer loop
      vertex -10.270550 -2.183073 0.000000
      vertex -1.763356 -2.427051 0.000000
      vertex -1.361971 -2.673020 0.000000
    endloop
  endfacet
  facet normal 0.000000 0.000000 -1.000000
    outer loop
      vertex -10.270550 -2.183073 0.000000
      vertex -1.361971 -2.673020 0.000000
      vertex -0.927051 -2.853170 0.000000
    endloop
  endfacet
  facet normal 0.000000 0.000000 -1.000000
    outer loop
      vertex -10.270550 -2.183073 0.000000
      vertex -0.927051 -2.853170 0.000000
      vertex -0.469303 -2.963065 0.000000
    endloop
  endfacet
  facet normal 0.000000 0.000000 -1.000000
    outer loop
      vertex -10.270550 -2.183073 0.000000
      vertex -0.469303 -2.963065 0.000000
      vertex 9.592227 -4.270735 0.000000
    endloop
  endfacet
  facet normal 0.000000 0.000000 -1.000000
    outer loop
      vertex -0.469303 -2.963065 0.000000
      vertex 0.000000 -3.000000 0.000000
      vertex 9.592227 -4.270735 0.000000
    endloop
  endfacet
  facet normal 0.000000 0.000000 -1.000000
    outer loop
      vertex 0.927051 -2.853170 0.000000
      vertex 9.592227 -4.270735 0.000000
      vertex 0.469303 -2.963065 0.000000
    endloop
  endfacet
  facet normal -0.000000 0.000000 -1.000000
    outer loop
      vertex 1.361971 -2.673020 0.000000
      vertex 10.270550 -2.183073 0.000000
      vertex 0.927051 -2.853170 0.000000
    endloop
  endfacet
  facet normal 0.000000 0.000000 -1.000000
    outer loop
      vertex 2.121320 -2.121320 0.000000
      vertex 10.270550 -2.183073 0.000000
      vertex 1.763356 -2.427051 0.000000
    endloop
  endfacet
  facet normal -0.000000 0.000000 -1.000000
    outer loop
      vertex 1.763356 -2.427051 0.000000
      vertex 10.270550 -2.183073 0.000000
      vertex 1.361971 -2.673020 0.000000
    endloop
  endfacet
  facet normal 0.000000 0.000000 -1.000000
    outer loop
      vertex 2.427051 -1.763356 0.000000
      vertex 10.270550 -2.183073 0.000000
      vertex 2.121320 -2.121320 0.000000
    endloop
  endfacet
  facet normal -0.000000 0.000000 -1.000000
    outer loop
      vertex 2.673020 -1.361971 0.000000
      vertex 10.500000 0.000000 0.000000
      vertex 2.427051 -1.763356 0.000000
    endloop
  endfacet
  facet normal -0.000000 0.000000 -1.000000
    outer loop
      vertex 2.853170 -0.927051 0.000000
      vertex 10.500000 0.000000 0.000000
      vertex 2.673020 -1.361971 0.000000
    endloop
  endfacet
  facet normal 0.000000 0.000000 -1.000000
    outer loop
      vertex -1.763356 -2.427051 0.000000
      vertex -10.270550 -2.183073 0.000000
      vertex -2.121320 -2.121320 0.000000
    endloop
  endfacet
  facet normal -0.000000 0.000000 -1.000000
    outer loop
      vertex 3.000000 0.000000 0.000000
      vertex 10.270550 2.183073 0.000000
      vertex 2.963065 -0.469303 0.000000
    endloop
  endfacet
  facet normal -0.000000 0.000000 -1.000000
    outer loop
      vertex 2.963065 0.469303 0.000000
      vertex 10.270550 2.183073 0.000000
      vertex 3.000000 0.000000 0.000000
    endloop
  endfacet
  facet normal 0.000000 0.000000 -1.000000
    outer loop
      vertex -2.427051 -1.763356 0.000000
      vertex -10.270550 -2.183073 0.000000
      vertex -2.673020 -1.361971 0.000000
    endloop
  endfacet
  facet normal -0.000000 0.000000 -1.000000
    outer loop
      vertex 2.673020 1.361971 0.000000
      vertex 10.270550 2.183073 0.000000
      vertex 2.853170 0.927051 0.000000
    endloop
  endfacet
  facet normal -0.000000 0.000000 -1.000000
    outer loop
      vertex 2.427051 1.763356 0.000000
      vertex 9.592227 4.270735 0.000000
      vertex 2.673020 1.361971 0.000000
    endloop
  endfacet
  facet normal -0.000000 0.000000 -1.000000
    outer loop
      vertex 2.121320 2.121320 0.000000
      vertex 9.592227 4.270735 0.000000
      vertex 2.427051 1.763356 0.000000
    endloop
  endfacet
  facet normal -0.000000 0.000000 -1.000000
    outer loop
      vertex 1.763356 2.427051 0.000000
      vertex 8.494678 6.171745 0.000000
      vertex 2.121320 2.121320 0.000000
    endloop
  endfacet
  facet normal -0.000000 0.000000 -1.000000
    outer loop
      vertex 1.361971 2.673020 0.000000
      vertex 8.494678 6.171745 0.000000
      vertex 1.763356 2.427051 0.000000
    endloop
  endfacet
  facet normal -0.000000 0.000000 -1.000000
    outer loop
      vertex 0.469303 2.963065 0.000000
      vertex 7.025871 7.803021 0.000000
      vertex 0.927051 2.853170 0.000000
    endloop
  endfacet
  facet normal 0.000000 -0.000000 -1.000000
    outer loop
      vertex -2.121320 2.121320 0.000000
      vertex -10.270550 -2.183073 0.000000
      vertex -1.763356 2.427051 0.000000
    endloop
  endfacet
  facet normal -0.000000 0.000000 -1.000000
    outer loop
      vertex 0.000000 3.000000 0.000000
      vertex 7.025871 7.803021 0.000000
      vertex 0.469303 2.963065 0.000000
    endloop
  endfacet
  facet normal 0.000000 0.000000 -1.000000
    outer loop
      vertex -0.469303 2.963065 0.000000
      vertex 7.025871 7.803021 0.000000
      vertex 0.000000 3.000000 0.000000
    endloop
  endfacet
  facet normal 0.000000 0.000000 -1.000000
    outer loop
      vertex -0.927051 2.853170 0.000000
      vertex 7.025871 7.803021 0.000000
      vertex -0.469303 2.963065 0.000000
    endloop
  endfacet
  facet normal 0.000000 0.000000 -1.000000
    outer loop
      vertex -1.361971 2.673020 0.000000
      vertex 7.025871 7.803021 0.000000
      vertex -0.927051 2.853170 0.000000
    endloop
  endfacet
  facet normal 0.000000 0.000000 -1.000000
    outer loop
      vertex -10.270550 -2.183073 0.000000
      vertex 7.025871 7.803021 0.000000
      vertex -1.361971 2.673020 0.000000
    endloop
  endfacet
  facet normal 0.000000 0.000000 -1.000000
    outer loop
      vertex -10.270550 -2.183073 0.000000
      vertex -1.361971 2.673020 0.000000
      vertex -1.763356 2.427051 0.000000
    endloop
  endfacet
  facet normal 0.000000 -0.000000 -1.000000
    outer loop
      vertex -2.427051 1.763356 0.000000
      vertex -10.270550 -2.183073 0.000000
      vertex -2.121320 2.121320 0.000000
    endloop
  endfacet
  facet normal 0.000000 -0.000000 -1.000000
    outer loop
      vertex -2.673020 1.361971 0.000000
      vertex -10.270550 -2.183073 0.000000
      vertex -2.427051 1.763356 0.000000
    endloop
  endfacet
  facet normal 0.000000 -0.000000 -1.000000
    outer loop
      vertex -2.853170 0.927051 0.000000
      vertex -10.270550 -2.183073 0.000000
      vertex -2.673020 1.361971 0.000000
    endloop
  endfacet
  facet normal 0.000000 -0.000000 -1.000000
    outer loop
      vertex -3.000000 0.000000 0.000000
      vertex -10.270550 -2.183073 0.000000
      vertex -2.963065 0.469303 0.000000
    endloop
  endfacet
  facet normal -0.000000 0.000000 -1.000000
    outer loop
      vertex 0.927051 2.853170 0.000000
      vertex 8.494678 6.171745 0.000000
      vertex 1.361971 2.673020 0.000000
    endloop
  endfacet
  facet normal 0.000000 -0.000000 -1.000000
    outer loop
      vertex -2.963065 0.469303 0.000000
      vertex -10.270550 -2.183073 0.000000
      vertex -2.853170 0.927051 0.000000
    endloop
  endfacet
  facet normal -0.994522 0.104528 0.000000
    outer loop
      vertex -10.500000 0.000000 0.000000
      vertex -10.500000 0.000000 12.000000
      vertex -10.270550 2.183073 0.000000
    endloop
  endfacet
  facet normal -0.994522 0.104528 0.000000
    outer loop
      vertex -10.270550 2.183073 0.000000
      vertex -10.500000 0.000000 12.000000
      vertex -10.270550 2.183073 12.000000
    endloop
  endfacet
  facet normal -0.994522 -0.104528 -0.000000
    outer loop
      vertex -10.500000 0.000000 0.000000
      vertex -10.270550 -2.183073 0.000000
      vertex -10.500000 0.000000 12.000000
    endloop
  endfacet
  facet normal -0.994522 -0.104528 0.000000
    outer loop
      vertex -10.500000 0.000000 12.000000
      vertex -10.270550 -2.183073 0.000000
      vertex -10.270550 -2.183073 12.000000
    endloop
  endfacet
  facet normal -0.951056 -0.309017 -0.000000
    outer loop
      vertex -10.270550 -2.183073 0.000000
      vertex -9.592227 -4.270735 0.000000
      vertex -10.270550 -2.183073 12.000000
    endloop
  endfacet
  facet normal -0.951056 -0.309017 0.000000
    outer loop
      vertex -10.270550 -2.183073 12.000000
      vertex -9.592227 -4.270735 0.000000
      vertex -9.592227 -4.270735 12.000000
    endloop
  endfacet
  facet normal -0.866025 -0.500000 -0.000000
    outer loop
      vertex -9.592227 -4.270735 0.000000
      vertex -8.494678 -6.171745 0.000000
      vertex -9.592227 -4.270735 12.000000
    endloop
  endfacet
  facet normal -0.866025 -0.500000 0.000000
    outer loop
      vertex -9.592227 -4.270735 12.000000
      vertex -8.494678 -6.171745 0.000000
      vertex -8.494678 -6.171745 12.000000
    endloop
  endfacet
  facet normal -0.743145 -0.669130 -0.000000
    outer loop
      vertex -8.494678 -6.171745 0.000000
      vertex -7.025871 -7.803021 0.000000
      vertex -8.494678 -6.171745 12.000000
    endloop
  endfacet
  facet normal -0.743145 -0.669130 0.000000
    outer loop
      vertex -8.494678 -6.171745 12.000000
      vertex -7.025871 -7.803021 0.000000
      vertex -7.025871 -7.803021 12.000000
    endloop
  endfacet
  facet normal -0.587785 -0.809017 0.000000
    outer loop
      vertex -7.025871 -7.803021 12.000000
      vertex -7.025871 -7.803021 0.000000
      vertex -5.250000 -9.093267 0.000000
    endloop
  endfacet
  facet normal -0.587785 -0.809017 0.000000
    outer loop
      vertex -5.250000 -9.093267 12.000000
      vertex -7.025871 -7.803021 12.000000
      vertex -5.250000 -9.093267 0.000000
    endloop
  endfacet
  facet normal -0.406736 -0.913546 0.000000
    outer loop
      vertex -5.250000 -9.093267 12.000000
      vertex -5.250000 -9.093267 0.000000
      vertex -3.244678 -9.986093 0.000000
    endloop
  endfacet
  facet normal -0.406736 -0.913546 0.000000
    outer loop
      vertex -3.244678 -9.986093 12.000000
      vertex -5.250000 -9.093267 12.000000
      vertex -3.244678 -9.986093 0.000000
    endloop
  endfacet
  facet normal -0.207912 -0.978148 0.000000
    outer loop
      vertex -3.244678 -9.986093 12.000000
      vertex -3.244678 -9.986093 0.000000
      vertex -1.097549 -10.442480 0.000000
    endloop
  endfacet
  facet normal -0.207912 -0.978148 0.000000
    outer loop
      vertex -1.097549 -10.442480 12.000000
      vertex -3.244678 -9.986093 12.000000
      vertex -1.097549 -10.442480 0.000000
    endloop
  endfacet
  facet normal 0.000000 -1.000000 0.000000
    outer loop
      vertex -1.097549 -10.442480 12.000000
      vertex -1.097549 -10.442480 0.000000
      vertex 1.097549 -10.442480 0.000000
    endloop
  endfacet
  facet normal 0.000000 -1.000000 0.000000
    outer loop
      vertex 1.097549 -10.442480 12.000000
      vertex -1.097549 -10.442480 12.000000
      vertex 1.097549 -10.442480 0.000000
    endloop
  endfacet
  facet normal 0.207912 -0.978148 0.000000
    outer loop
      vertex 1.097549 -10.442480 12.000000
      vertex 1.097549 -10.442480 0.000000
      vertex 3.244678 -9.986093 0.000000
    endloop
  endfacet
  facet normal 0.207912 -0.978148 0.000000
    outer loop
      vertex 3.244678 -9.986093 12.000000
      vertex 1.097549 -10.442480 12.000000
      vertex 3.244678 -9.986093 0.000000
    endloop
  endfacet
  facet normal 0.406736 -0.913546 0.000000
    outer loop
      vertex 3.244678 -9.986093 12.000000
      vertex 3.244678 -9.986093 0.000000
      vertex 5.250000 -9.093267 0.000000
    endloop
  endfacet
  facet normal 0.406736 -0.913546 0.000000
    outer loop
      vertex 5.250000 -9.093267 12.000000
      vertex 3.244678 -9.986093 12.000000
      vertex 5.250000 -9.093267 0.000000
    endloop
  endfacet
  facet normal 0.587785 -0.809017 0.000000
    outer loop
      vertex 5.250000 -9.093267 12.000000
      vertex 5.250000 -9.093267 0.000000
      vertex 7.025871 -7.803021 0.000000
    endloop
  endfacet
  facet normal 0.587785 -0.809017 0.000000
    outer loop
      vertex 7.025871 -7.803021 12.000000
      vertex 5.250000 -9.093267 12.000000
      vertex 7.025871 -7.803021 0.000000
    endloop
  endfacet
  facet normal 0.743145 -0.669130 0.000000
    outer loop
      vertex 7.025871 -7.803021 12.000000
      vertex 7.025871 -7.803021 0.000000
      vertex 8.494678 -6.171745 0.000000
    endloop
  endfacet
  facet normal 0.743145 -0.669130 0.000000
    outer loop
      vertex 8.494678 -6.171745 12.000000
      vertex 7.025871 -7.803021 12.000000
      vertex 8.494678 -6.171745 0.000000
    endloop
  endfacet
  facet normal 0.866025 -0.500000 0.000000
    outer loop
      vertex 8.494678 -6.171745 12.000000
      vertex 8.494678 -6.171745 0.000000
      vertex 9.592227 -4.270735 0.000000
    endloop
  endfacet
  facet normal 0.866025 -0.500000 0.000000
    outer loop
      vertex 9.592227 -4.270735 12.000000
      vertex 8.494678 -6.171745 12.000000
      vertex 9.592227 -4.270735 0.000000
    endloop
  endfacet
  facet normal 0.951056 -0.309017 0.000000
    outer loop
      vertex 9.592227 -4.270735 12.000000
      vertex 9.592227 -4.270735 0.000000
      vertex 10.270550 -2.183073 0.000000
    endloop
  endfacet
  facet normal 0.951056 -0.309017 0.000000
    outer loop
      vertex 10.270550 -2.183073 12.000000
      vertex 9.592227 -4.270735 12.000000
      vertex 10.270550 -2.183073 0.000000
    endloop
  endfacet
  facet normal 0.994522 -0.104528 0.000000
    outer loop
      vertex 10.270550 -2.183073 12.000000
      vertex 10.270550 -2.183073 0.000000
      vertex 10.500000 0.000000 0.000000
    endloop
  endfacet
  facet normal 0.994522 -0.104528 0.000000
    outer loop
      vertex 10.500000 0.000000 12.000000
      vertex 10.270550 -2.183073 12.000000
      vertex 10.500000 0.000000 0.000000
    endloop
  endfacet
  facet normal 0.994522 0.104528 0.000000
    outer loop
      vertex 10.500000 0.000000 0.000000
      vertex 10.270550 2.183073 0.000000
      vertex 10.270550 2.183073 12.000000
    endloop
  endfacet
  facet normal 0.994522 0.104528 -0.000000
    outer loop
      vertex 10.500000 0.000000 12.000000
      vertex 10.500000 0.000000 0.000000
      vertex 10.270550 2.183073 12.000000
    endloop
  endfacet
  facet normal 0.951056 0.309017 0.000000
    outer loop
      vertex 10.270550 2.183073 0.000000
      vertex 9.592227 4.270735 0.000000
      vertex 9.592227 4.270735 12.000000
    endloop
  endfacet
  facet normal 0.951056 0.309017 -0.000000
    outer loop
      vertex 10.270550 2.183073 12.000000
      vertex 10.270550 2.183073 0.000000
      vertex 9.592227 4.270735 12.000000
    endloop
  endfacet
  facet normal 0.866025 0.500000 0.000000
    outer loop
      vertex 9.592227 4.270735 0.000000
      vertex 8.494678 6.171745 0.000000
      vertex 8.494678 6.171745 12.000000
    endloop
  endfacet
  facet normal 0.866025 0.500000 -0.000000
    outer loop
      vertex 9.592227 4.270735 12.000000
      vertex 9.592227 4.270735 0.000000
      vertex 8.494678 6.171745 12.000000
    endloop
  endfacet
  facet normal 0.743145 0.669130 0.000000
    outer loop
      vertex 8.494678 6.171745 0.000000
      vertex 7.025871 7.803021 0.000000
      vertex 7.025871 7.803021 12.000000
    endloop
  endfacet
  facet normal 0.743145 0.669130 -0.000000
    outer loop
      vertex 8.494678 6.171745 12.000000
      vertex 8.494678 6.171745 0.000000
      vertex 7.025871 7.803021 12.000000
    endloop
  endfacet
  facet normal 0.587785 0.809017 0.000000
    outer loop
      vertex 5.250000 9.093267 0.000000
      vertex 5.250000 9.093267 12.000000
      vertex 7.025871 7.803021 0.000000
    endloop
  endfacet
  facet normal 0.587785 0.809017 0.000000
    outer loop
      vertex 7.025871 7.803021 0.000000
      vertex 5.250000 9.093267 12.000000
      vertex 7.025871 7.803021 12.000000
    endloop
  endfacet
  facet normal 0.406736 0.913546 0.000000
    outer loop
      vertex 3.244678 9.986093 0.000000
      vertex 3.244678 9.986093 12.000000
      vertex 5.250000 9.093267 0.000000
    endloop
  endfacet
  facet normal 0.406736 0.913546 0.000000
    outer loop
      vertex 5.250000 9.093267 0.000000
      vertex 3.244678 9.986093 12.000000
      vertex 5.250000 9.093267 12.000000
    endloop
  endfacet
  facet normal 0.207912 0.978148 0.000000
    outer loop
      vertex 1.097549 10.442480 0.000000
      vertex 1.097549 10.442480 12.000000
      vertex 3.244678 9.986093 0.000000
    endloop
  endfacet
  facet normal 0.207912 0.978148 0.000000
    outer loop
      vertex 3.244678 9.986093 0.000000
      vertex 1.097549 10.442480 12.000000
      vertex 3.244678 9.986093 12.000000
    endloop
  endfacet
  facet normal 0.000000 1.000000 0.000000
    outer loop
      vertex -1.097549 10.442480 0.000000
      vertex -1.097549 10.442480 12.000000
      vertex 1.097549 10.442480 0.000000
    endloop
  endfacet
  facet normal 0.000000 1.000000 0.000000
    outer loop
      vertex 1.097549 10.442480 0.000000
      vertex -1.097549 10.442480 12.000000
      vertex 1.097549 10.442480 12.000000
    endloop
  endfacet
  facet normal -0.207912 0.978148 0.000000
    outer loop
      vertex -3.244678 9.986093 0.000000
      vertex -3.244678 9.986093 12.000000
      vertex -1.097549 10.442480 0.000000
    endloop
  endfacet
  facet normal -0.207912 0.978148 0.000000
    outer loop
      vertex -1.097549 10.442480 0.000000
      vertex -3.244678 9.986093 12.000000
      vertex -1.097549 10.442480 12.000000
    endloop
  endfacet
  facet normal -0.406736 0.913546 0.000000
    outer loop
      vertex -5.250000 9.093267 0.000000
      vertex -5.250000 9.093267 12.000000
      vertex -3.244678 9.986093 0.000000
    endloop
  endfacet
  facet normal -0.406736 0.913546 0.000000
    outer loop
      vertex -3.244678 9.986093 0.000000
      vertex -5.250000 9.093267 12.000000
      vertex -3.244678 9.986093 12.000000
    endloop
  endfacet
  facet normal -0.587785 0.809017 0.000000
    outer loop
      vertex -7.025871 7.803021 0.000000
      vertex -7.025871 7.803021 12.000000
      vertex -5.250000 9.093267 0.000000
    endloop
  endfacet
  facet normal -0.587785 0.809017 0.000000
    outer loop
      vertex -5.250000 9.093267 0.000000
      vertex -7.025871 7.803021 12.000000
      vertex -5.250000 9.093267 12.000000
    endloop
  endfacet
  facet normal -0.743145 0.669130 0.000000
    outer loop
      vertex -8.494678 6.171745 0.000000
      vertex -8.494678 6.171745 12.000000
      vertex -7.025871 7.803021 0.000000
    endloop
  endfacet
  facet normal -0.743145 0.669130 0.000000
    outer loop
      vertex -7.025871 7.803021 0.000000
      vertex -8.494678 6.171745 12.000000
      vertex -7.025871 7.803021 12.000000
    endloop
  endfacet
  facet normal -0.866025 0.500000 0.000000
    outer loop
      vertex -9.592227 4.270735 0.000000
      vertex -9.592227 4.270735 12.000000
      vertex -8.494678 6.171745 0.000000
    endloop
  endfacet
  facet normal -0.866025 0.500000 0.000000
    outer loop
      vertex -8.494678 6.171745 0.000000
      vertex -9.592227 4.270735 12.000000
      vertex -8.494678 6.171745 12.000000
    endloop
  endfacet
  facet normal -0.951056 0.309017 0.000000
    outer loop
      vertex -10.270550 2.183073 0.000000
      vertex -10.270550 2.183073 12.000000
      vertex -9.592227 4.270735 0.000000
    endloop
  endfacet
  facet normal -0.951056 0.309017 0.000000
    outer loop
      vertex -9.592227 4.270735 0.000000
      vertex -10.270550 2.183073 12.000000
      vertex -9.592227 4.270735 12.000000
    endloop
  endfacet
  facet normal 0.996917 0.078459 0.000000
    outer loop
      vertex -3.000000 0.000000 5.000000
      vertex -2.963065 -0.469303 5.000000
      vertex -2.963065 -0.469303 0.000000
    endloop
  endfacet
  facet normal 0.996917 0.078459 0.000000
    outer loop
      vertex -3.000000 0.000000 0.000000
      vertex -3.000000 0.000000 5.000000
      vertex -2.963065 -0.469303 0.000000
    endloop
  endfacet
  facet normal 0.996917 -0.078459 0.000000
    outer loop
      vertex -2.963065 0.469303 0.000000
      vertex -2.963065 0.469303 5.000000
      vertex -3.000000 0.000000 5.000000
    endloop
  endfacet
  facet normal 0.996917 -0.078459 0.000000
    outer loop
      vertex -3.000000 0.000000 0.000000
      vertex -2.963065 0.469303 0.000000
      vertex -3.000000 0.000000 5.000000
    endloop
  endfacet
  facet normal 0.972370 -0.233444 0.000000
    outer loop
      vertex -2.853170 0.927051 0.000000
      vertex -2.853170 0.927051 5.000000
      vertex -2.963065 0.469303 5.000000
    endloop
  endfacet
  facet normal 0.972370 -0.233444 0.000000
    outer loop
      vertex -2.963065 0.469303 0.000000
      vertex -2.853170 0.927051 0.000000
      vertex -2.963065 0.469303 5.000000
    endloop
  endfacet
  facet normal 0.923879 -0.382684 0.000000
    outer loop
      vertex -2.673020 1.361971 0.000000
      vertex -2.673020 1.361971 5.000000
      vertex -2.853170 0.927051 5.000000
    endloop
  endfacet
  facet normal 0.923879 -0.382684 0.000000
    outer loop
      vertex -2.853170 0.927051 0.000000
      vertex -2.673020 1.361971 0.000000
      vertex -2.853170 0.927051 5.000000
    endloop
  endfacet
  facet normal 0.852640 -0.522498 0.000000
    outer loop
      vertex -2.427051 1.763356 0.000000
      vertex -2.427051 1.763356 5.000000
      vertex -2.673020 1.361971 5.000000
    endloop
  endfacet
  facet normal 0.852640 -0.522498 0.000000
    outer loop
      vertex -2.673020 1.361971 0.000000
      vertex -2.427051 1.763356 0.000000
      vertex -2.673020 1.361971 5.000000
    endloop
  endfacet
  facet normal 0.760405 -0.649449 0.000000
    outer loop
      vertex -2.121320 2.121320 0.000000
      vertex -2.121320 2.121320 5.000000
      vertex -2.427051 1.763356 5.000000
    endloop
  endfacet
  facet normal 0.760405 -0.649449 0.000000
    outer loop
      vertex -2.427051 1.763356 0.000000
      vertex -2.121320 2.121320 0.000000
      vertex -2.427051 1.763356 5.000000
    endloop
  endfacet
  facet normal 0.649449 -0.760405 0.000000
    outer loop
      vertex -1.763356 2.427051 0.000000
      vertex -1.763356 2.427051 5.000000
      vertex -2.121320 2.121320 5.000000
    endloop
  endfacet
  facet normal 0.649449 -0.760405 0.000000
    outer loop
      vertex -2.121320 2.121320 0.000000
      vertex -1.763356 2.427051 0.000000
      vertex -2.121320 2.121320 5.000000
    endloop
  endfacet
  facet normal 0.522498 -0.852640 0.000000
    outer loop
      vertex -1.361971 2.673020 0.000000
      vertex -1.361971 2.673020 5.000000
      vertex -1.763356 2.427051 5.000000
    endloop
  endfacet
  facet normal 0.522498 -0.852640 0.000000
    outer loop
      vertex -1.763356 2.427051 0.000000
      vertex -1.361971 2.673020 0.000000
      vertex -1.763356 2.427051 5.000000
    endloop
  endfacet
  facet normal 0.382684 -0.923879 0.000000
    outer loop
      vertex -0.927051 2.853170 0.000000
      vertex -0.927051 2.853170 5.000000
      vertex -1.361971 2.673020 5.000000
    endloop
  endfacet
  facet normal 0.382684 -0.923879 0.000000
    outer loop
      vertex -1.361971 2.673020 0.000000
      vertex -0.927051 2.853170 0.000000
      vertex -1.361971 2.673020 5.000000
    endloop
  endfacet
  facet normal 0.233444 -0.972370 0.000000
    outer loop
      vertex -0.469303 2.963065 0.000000
      vertex -0.469303 2.963065 5.000000
      vertex -0.927051 2.853170 5.000000
    endloop
  endfacet
  facet normal 0.233444 -0.972370 0.000000
    outer loop
      vertex -0.927051 2.853170 0.000000
      vertex -0.469303 2.963065 0.000000
      vertex -0.927051 2.853170 5.000000
    endloop
  endfacet
  facet normal 0.078459 -0.996917 0.000000
    outer loop
      vertex 0.000000 3.000000 0.000000
      vertex 0.000000 3.000000 5.000000
      vertex -0.469303 2.963065 5.000000
    endloop
  endfacet
  facet normal 0.078459 -0.996917 0.000000
    outer loop
      vertex -0.469303 2.963065 0.000000
      vertex 0.000000 3.000000 0.000000
      vertex -0.469303 2.963065 5.000000
    endloop
  endfacet
  facet normal -0.078459 -0.996917 -0.000000
    outer loop
      vertex 0.469303 2.963065 0.000000
      vertex 0.469303 2.963065 5.000000
      vertex 0.000000 3.000000 5.000000
    endloop
  endfacet
  facet normal -0.078459 -0.996917 -0.000000
    outer loop
      vertex 0.000000 3.000000 0.000000
      vertex 0.469303 2.963065 0.000000
      vertex 0.000000 3.000000 5.000000
    endloop
  endfacet
  facet normal -0.233444 -0.972370 -0.000000
    outer loop
      vertex 0.927051 2.853170 0.000000
      vertex 0.927051 2.853170 5.000000
      vertex 0.469303 2.963065 5.000000
    endloop
  endfacet
  facet normal -0.233444 -0.972370 -0.000000
    outer loop
      vertex 0.469303 2.963065 0.000000
      vertex 0.927051 2.853170 0.000000
      vertex 0.469303 2.963065 5.000000
    endloop
  endfacet
  facet normal -0.382684 -0.923879 -0.000000
    outer loop
      vertex 1.361971 2.673020 0.000000
      vertex 1.361971 2.673020 5.000000
      vertex 0.927051 2.853170 5.000000
    endloop
  endfacet
  facet normal -0.382684 -0.923879 -0.000000
    outer loop
      vertex 0.927051 2.853170 0.000000
      vertex 1.361971 2.673020 0.000000
      vertex 0.927051 2.853170 5.000000
    endloop
  endfacet
  facet normal -0.522498 -0.852640 -0.000000
    outer loop
      vertex 1.763356 2.427051 0.000000
      vertex 1.763356 2.427051 5.000000
      vertex 1.361971 2.673020 5.000000
    endloop
  endfacet
  facet normal -0.522498 -0.852640 -0.000000
    outer loop
      vertex 1.361971 2.673020 0.000000
      vertex 1.763356 2.427051 0.000000
      vertex 1.361971 2.673020 5.000000
    endloop
  endfacet
  facet normal -0.649449 -0.760405 -0.000000
    outer loop
      vertex 2.121320 2.121320 0.000000
      vertex 2.121320 2.121320 5.000000
      vertex 1.763356 2.427051 5.000000
    endloop
  endfacet
  facet normal -0.649449 -0.760405 -0.000000
    outer loop
      vertex 1.763356 2.427051 0.000000
      vertex 2.121320 2.121320 0.000000
      vertex 1.763356 2.427051 5.000000
    endloop
  endfacet
  facet normal -0.760405 -0.649449 0.000000
    outer loop
      vertex 2.427051 1.763356 5.000000
      vertex 2.121320 2.121320 5.000000
      vertex 2.427051 1.763356 0.000000
    endloop
  endfacet
  facet normal -0.760405 -0.649449 0.000000
    outer loop
      vertex 2.427051 1.763356 0.000000
      vertex 2.121320 2.121320 5.000000
      vertex 2.121320 2.121320 0.000000
    endloop
  endfacet
  facet normal -0.852640 -0.522498 0.000000
    outer loop
      vertex 2.673020 1.361971 5.000000
      vertex 2.427051 1.763356 5.000000
      vertex 2.673020 1.361971 0.000000
    endloop
  endfacet
  facet normal -0.852640 -0.522498 0.000000
    outer loop
      vertex 2.673020 1.361971 0.000000
      vertex 2.427051 1.763356 5.000000
      vertex 2.427051 1.763356 0.000000
    endloop
  endfacet
  facet normal -0.923879 -0.382684 0.000000
    outer loop
      vertex 2.853170 0.927051 5.000000
      vertex 2.673020 1.361971 5.000000
      vertex 2.853170 0.927051 0.000000
    endloop
  endfacet
  facet normal -0.923879 -0.382684 0.000000
    outer loop
      vertex 2.853170 0.927051 0.000000
      vertex 2.673020 1.361971 5.000000
      vertex 2.673020 1.361971 0.000000
    endloop
  endfacet
  facet normal -0.972370 -0.233444 0.000000
    outer loop
      vertex 2.963065 0.469303 5.000000
      vertex 2.853170 0.927051 5.000000
      vertex 2.963065 0.469303 0.000000
    endloop
  endfacet
  facet normal -0.972370 -0.233444 0.000000
    outer loop
      vertex 2.963065 0.469303 0.000000
      vertex 2.853170 0.927051 5.000000
      vertex 2.853170 0.927051 0.000000
    endloop
  endfacet
  facet normal -0.996917 -0.078459 0.000000
    outer loop
      vertex 3.000000 0.000000 5.000000
      vertex 2.963065 0.469303 5.000000
      vertex 3.000000 0.000000 0.000000
    endloop
  endfacet
  facet normal -0.996917 -0.078459 0.000000
    outer loop
      vertex 3.000000 0.000000 0.000000
      vertex 2.963065 0.469303 5.000000
      vertex 2.963065 0.469303 0.000000
    endloop
  endfacet
  facet normal -0.996917 0.078459 0.000000
    outer loop
      vertex 3.000000 0.000000 5.000000
      vertex 3.000000 0.000000 0.000000
      vertex 2.963065 -0.469303 5.000000
    endloop
  endfacet
  facet normal -0.996917 0.078459 0.000000
    outer loop
      vertex 2.963065 -0.469303 5.000000
      vertex 3.000000 0.000000 0.000000
      vertex 2.963065 -0.469303 0.000000
    endloop
  endfacet
  facet normal -0.972370 0.233444 0.000000
    outer loop
      vertex 2.963065 -0.469303 5.000000
      vertex 2.963065 -0.469303 0.000000
      vertex 2.853170 -0.927051 5.000000
    endloop
  endfacet
  facet normal -0.972370 0.233444 0.000000
    outer loop
      vertex 2.853170 -0.927051 5.000000
      vertex 2.963065 -0.469303 0.000000
      vertex 2.853170 -0.927051 0.000000
    endloop
  endfacet
  facet normal -0.923879 0.382684 0.000000
    outer loop
      vertex 2.853170 -0.927051 5.000000
      vertex 2.853170 -0.927051 0.000000
      vertex 2.673020 -1.361971 5.000000
    endloop
  endfacet
  facet normal -0.923879 0.382684 0.000000
    outer loop
      vertex 2.673020 -1.361971 5.000000
      vertex 2.853170 -0.927051 0.000000
      vertex 2.673020 -1.361971 0.000000
    endloop
  endfacet
  facet normal -0.852640 0.522498 0.000000
    outer loop
      vertex 2.673020 -1.361971 5.000000
      vertex 2.673020 -1.361971 0.000000
      vertex 2.427051 -1.763356 5.000000
    endloop
  endfacet
  facet normal -0.852640 0.522498 0.000000
    outer loop
      vertex 2.427051 -1.763356 5.000000
      vertex 2.673020 -1.361971 0.000000
      vertex 2.427051 -1.763356 0.000000
    endloop
  endfacet
  facet normal -0.760405 0.649449 0.000000
    outer loop
      vertex 2.427051 -1.763356 5.000000
      vertex 2.427051 -1.763356 0.000000
      vertex 2.121320 -2.121320 5.000000
    endloop
  endfacet
  facet normal -0.760405 0.649449 0.000000
    outer loop
      vertex 2.121320 -2.121320 5.000000
      vertex 2.427051 -1.763356 0.000000
      vertex 2.121320 -2.121320 0.000000
    endloop
  endfacet
  facet normal -0.649449 0.760405 0.000000
    outer loop
      vertex 2.121320 -2.121320 5.000000
      vertex 2.121320 -2.121320 0.000000
      vertex 1.763356 -2.427051 5.000000
    endloop
  endfacet
  facet normal -0.649449 0.760405 0.000000
    outer loop
      vertex 1.763356 -2.427051 5.000000
      vertex 2.121320 -2.121320 0.000000
      vertex 1.763356 -2.427051 0.000000
    endloop
  endfacet
  facet normal -0.522498 0.852640 0.000000
    outer loop
      vertex 1.763356 -2.427051 5.000000
      vertex 1.763356 -2.427051 0.000000
      vertex 1.361971 -2.673020 5.000000
    endloop
  endfacet
  facet normal -0.522498 0.852640 0.000000
    outer loop
      vertex 1.361971 -2.673020 5.000000
      vertex 1.763356 -2.427051 0.000000
      vertex 1.361971 -2.673020 0.000000
    endloop
  endfacet
  facet normal -0.382684 0.923879 0.000000
    outer loop
      vertex 1.361971 -2.673020 5.000000
      vertex 1.361971 -2.673020 0.000000
      vertex 0.927051 -2.853170 5.000000
    endloop
  endfacet
  facet normal -0.382684 0.923879 0.000000
    outer loop
      vertex 0.927051 -2.853170 5.000000
      vertex 1.361971 -2.673020 0.000000
      vertex 0.927051 -2.853170 0.000000
    endloop
  endfacet
  facet normal -0.233444 0.972370 0.000000
    outer loop
      vertex 0.927051 -2.853170 5.000000
      vertex 0.927051 -2.853170 0.000000
      vertex 0.469303 -2.963065 5.000000
    endloop
  endfacet
  facet normal -0.233444 0.972370 0.000000
    outer loop
      vertex 0.469303 -2.963065 5.000000
      vertex 0.927051 -2.853170 0.000000
      vertex 0.469303 -2.963065 0.000000
    endloop
  endfacet
  facet normal -0.078459 0.996917 0.000000
    outer loop
      vertex 0.469303 -2.963065 5.000000
      vertex 0.469303 -2.963065 0.000000
      vertex 0.000000 -3.000000 5.000000
    endloop
  endfacet
  facet normal -0.078459 0.996917 0.000000
    outer loop
      vertex 0.000000 -3.000000 5.000000
      vertex 0.469303 -2.963065 0.000000
      vertex 0.000000 -3.000000 0.000000
    endloop
  endfacet
  facet normal 0.078459 0.996917 -0.000000
    outer loop
      vertex 0.000000 -3.000000 5.000000
      vertex 0.000000 -3.000000 0.000000
      vertex -0.469303 -2.963065 5.000000
    endloop
  endfacet
  facet normal 0.078459 0.996917 -0.000000
    outer loop
      vertex -0.469303 -2.963065 5.000000
      vertex 0.000000 -3.000000 0.000000
      vertex -0.469303 -2.963065 0.000000
    endloop
  endfacet
  facet normal 0.233444 0.972370 -0.000000
    outer loop
      vertex -0.469303 -2.963065 5.000000
      vertex -0.469303 -2.963065 0.000000
      vertex -0.927051 -2.853170 5.000000
    endloop
  endfacet
  facet normal 0.233444 0.972370 -0.000000
    outer loop
      vertex -0.927051 -2.853170 5.000000
      vertex -0.469303 -2.963065 0.000000
      vertex -0.927051 -2.853170 0.000000
    endloop
  endfacet
  facet normal 0.382684 0.923879 -0.000000
    outer loop
      vertex -0.927051 -2.853170 5.000000
      vertex -0.927051 -2.853170 0.000000
      vertex -1.361971 -2.673020 5.000000
    endloop
  endfacet
  facet normal 0.382684 0.923879 -0.000000
    outer loop
      vertex -1.361971 -2.673020 5.000000
      vertex -0.927051 -2.853170 0.000000
      vertex -1.361971 -2.673020 0.000000
    endloop
  endfacet
  facet normal 0.522498 0.852640 -0.000000
    outer loop
      vertex -1.361971 -2.673020 5.000000
      vertex -1.361971 -2.673020 0.000000
      vertex -1.763356 -2.427051 5.000000
    endloop
  endfacet
  facet normal 0.522498 0.852640 -0.000000
    outer loop
      vertex -1.763356 -2.427051 5.000000
      vertex -1.361971 -2.673020 0.000000
      vertex -1.763356 -2.427051 0.000000
    endloop
  endfacet
  facet normal 0.649449 0.760405 -0.000000
    outer loop
      vertex -1.763356 -2.427051 5.000000
      vertex -1.763356 -2.427051 0.000000
      vertex -2.121320 -2.121320 5.000000
    endloop
  endfacet
  facet normal 0.649449 0.760405 -0.000000
    outer loop
      vertex -2.121320 -2.121320 5.000000
      vertex -1.763356 -2.427051 0.000000
      vertex -2.121320 -2.121320 0.000000
    endloop
  endfacet
  facet normal 0.760405 0.649449 0.000000
    outer loop
      vertex -2.427051 -1.763356 5.000000
      vertex -2.121320 -2.121320 5.000000
      vertex -2.121320 -2.121320 0.000000
    endloop
  endfacet
  facet normal 0.760405 0.649449 0.000000
    outer loop
      vertex -2.427051 -1.763356 0.000000
      vertex -2.427051 -1.763356 5.000000
      vertex -2.121320 -2.121320 0.000000
    endloop
  endfacet
  facet normal 0.852640 0.522498 0.000000
    outer loop
      vertex -2.673020 -1.361971 5.000000
      vertex -2.427051 -1.763356 5.000000
      vertex -2.427051 -1.763356 0.000000
    endloop
  endfacet
  facet normal 0.852640 0.522498 0.000000
    outer loop
      vertex -2.673020 -1.361971 0.000000
      vertex -2.673020 -1.361971 5.000000
      vertex -2.427051 -1.763356 0.000000
    endloop
  endfacet
  facet normal 0.923879 0.382684 0.000000
    outer loop
      vertex -2.853170 -0.927051 5.000000
      vertex -2.673020 -1.361971 5.000000
      vertex -2.673020 -1.361971 0.000000
    endloop
  endfacet
  facet normal 0.923879 0.382684 0.000000
    outer loop
      vertex -2.853170 -0.927051 0.000000
      vertex -2.853170 -0.927051 5.000000
      vertex -2.673020 -1.361971 0.000000
    endloop
  endfacet
  facet normal 0.972370 0.233444 0.000000
    outer loop
      vertex -2.963065 -0.469303 5.000000
      vertex -2.853170 -0.927051 5.000000
      vertex -2.853170 -0.927051 0.000000
    endloop
  endfacet
  facet normal 0.972370 0.233444 0.000000
    outer loop
      vertex -2.963065 -0.469303 0.000000
      vertex -2.963065 -0.469303 5.000000
      vertex -2.853170 -0.927051 0.000000
    endloop
  endfacet
  facet normal 0.000000 0.000000 1.000000
    outer loop
      vertex -10.270550 2.183073 12.000000
      vertex -10.500000 0.000000 12.000000
      vertex -10.270550 -2.183073 12.000000
    endloop
  endfacet
  facet normal 0.000000 0.000000 1.000000
    outer loop
      vertex -8.494678 -6.171745 12.000000
      vertex -10.270550 2.183073 12.000000
      vertex -9.592227 -4.270735 12.000000
    endloop
  endfacet
  facet normal 0.000000 0.000000 1.000000
    outer loop
      vertex -9.592227 -4.270735 12.000000
      vertex -10.270550 2.183073 12.000000
      vertex -10.270550 -2.183073 12.000000
    endloop
  endfacet
  facet normal 0.000000 0.000000 1.000000
    outer loop
      vertex -7.025871 -7.803021 12.000000
      vertex -10.270550 2.183073 12.000000
      vertex -8.494678 -6.171745 12.000000
    endloop
  endfacet
  facet normal 0.000000 0.000000 1.000000
    outer loop
      vertex -5.250000 -9.093267 12.000000
      vertex -10.270550 2.183073 12.000000
      vertex -7.025871 -7.803021 12.000000
    endloop
  endfacet
  facet normal 0.000000 0.000000 1.000000
    outer loop
      vertex -3.244678 -9.986093 12.000000
      vertex -10.270550 2.183073 12.000000
      vertex -5.250000 -9.093267 12.000000
    endloop
  endfacet
  facet normal -0.000000 -0.000000 1.000000
    outer loop
      vertex -4.500000 -7.794229 12.000000
      vertex -10.270550 2.183073 12.000000
      vertex -3.244678 -9.986093 12.000000
    endloop
  endfacet
  facet normal 0.000000 0.000000 1.000000
    outer loop
      vertex -4.500000 7.794229 12.000000
      vertex 5.250000 9.093267 12.000000
      vertex 3.244678 9.986093 12.000000
    endloop
  endfacet
  facet normal 0.000000 0.000000 1.000000
    outer loop
      vertex -4.500000 7.794229 12.000000
      vertex 4.500000 7.794229 12.000000
      vertex 5.250000 9.093267 12.000000
    endloop
  endfacet
  facet normal 0.000000 0.000000 1.000000
    outer loop
      vertex 4.500000 7.794229 12.000000
      vertex 8.494678 6.171745 12.000000
      vertex 7.025871 7.803021 12.000000
    endloop
  endfacet
  facet normal 0.000000 0.000000 1.000000
    outer loop
      vertex 9.000000 0.000000 12.000000
      vertex 4.500000 -7.794229 12.000000
      vertex 7.025871 -7.803021 12.000000
    endloop
  endfacet
  facet normal 0.000000 0.000000 1.000000
    outer loop
      vertex 4.500000 7.794229 12.000000
      vertex 10.500000 0.000000 12.000000
      vertex 10.270550 2.183073 12.000000
    endloop
  endfacet
  facet normal 0.000000 0.000000 1.000000
    outer loop
      vertex 4.500000 7.794229 12.000000
      vertex 10.270550 2.183073 12.000000
      vertex 9.592227 4.270735 12.000000
    endloop
  endfacet
  facet normal 0.000000 0.000000 1.000000
    outer loop
      vertex 4.500000 7.794229 12.000000
      vertex 9.592227 4.270735 12.000000
      vertex 8.494678 6.171745 12.000000
    endloop
  endfacet
  facet normal 0.000000 -0.000000 1.000000
    outer loop
      vertex -5.250000 9.093267 12.000000
      vertex -10.270550 2.183073 12.000000
      vertex -3.244678 9.986093 12.000000
    endloop
  endfacet
  facet normal 0.000000 -0.000000 1.000000
    outer loop
      vertex -7.025871 7.803021 12.000000
      vertex -10.270550 2.183073 12.000000
      vertex -5.250000 9.093267 12.000000
    endloop
  endfacet
  facet normal 0.000000 -0.000000 1.000000
    outer loop
      vertex -8.494678 6.171745 12.000000
      vertex -10.270550 2.183073 12.000000
      vertex -7.025871 7.803021 12.000000
    endloop
  endfacet
  facet normal 0.000000 -0.000000 1.000000
    outer loop
      vertex -9.592227 4.270735 12.000000
      vertex -10.270550 2.183073 12.000000
      vertex -8.494678 6.171745 12.000000
    endloop
  endfacet
  facet normal 0.000000 0.000000 1.000000
    outer loop
      vertex -1.097549 -10.442480 12.000000
      vertex -4.500000 -7.794229 12.000000
      vertex -3.244678 -9.986093 12.000000
    endloop
  endfacet
  facet normal -0.000000 -0.000000 1.000000
    outer loop
      vertex -9.000000 0.000000 12.000000
      vertex -10.270550 2.183073 12.000000
      vertex -4.500000 -7.794229 12.000000
    endloop
  endfacet
  facet normal 0.000000 0.000000 1.000000
    outer loop
      vertex -4.500000 7.794229 12.000000
      vertex 1.097549 10.442480 12.000000
      vertex -1.097549 10.442480 12.000000
    endloop
  endfacet
  facet normal 0.000000 0.000000 1.000000
    outer loop
      vertex -4.500000 7.794229 12.000000
      vertex 3.244678 9.986093 12.000000
      vertex 1.097549 10.442480 12.000000
    endloop
  endfacet
  facet normal 0.000000 -0.000000 1.000000
    outer loop
      vertex -3.244678 9.986093 12.000000
      vertex -4.500000 7.794229 12.000000
      vertex -1.097549 10.442480 12.000000
    endloop
  endfacet
  facet normal 0.000000 0.000000 1.000000
    outer loop
      vertex -3.244678 9.986093 12.000000
      vertex -10.270550 2.183073 12.000000
      vertex -4.500000 7.794229 12.000000
    endloop
  endfacet
  facet normal 0.000000 -0.000000 1.000000
    outer loop
      vertex 5.250000 9.093267 12.000000
      vertex 4.500000 7.794229 12.000000
      vertex 7.025871 7.803021 12.000000
    endloop
  endfacet
  facet normal 0.000000 0.000000 1.000000
    outer loop
      vertex 4.500000 7.794229 12.000000
      vertex 9.000000 0.000000 12.000000
      vertex 10.500000 0.000000 12.000000
    endloop
  endfacet
  facet normal 0.000000 0.000000 1.000000
    outer loop
      vertex 10.500000 0.000000 12.000000
      vertex 9.000000 0.000000 12.000000
      vertex 10.270550 -2.183073 12.000000
    endloop
  endfacet
  facet normal -0.000000 0.000000 1.000000
    outer loop
      vertex 7.025871 -7.803021 12.000000
      vertex 4.500000 -7.794229 12.000000
      vertex 5.250000 -9.093267 12.000000
    endloop
  endfacet
  facet normal 0.000000 -0.000000 1.000000
    outer loop
      vertex 4.500000 -7.794229 12.000000
      vertex 3.244678 -9.986093 12.000000
      vertex 5.250000 -9.093267 12.000000
    endloop
  endfacet
  facet normal 0.000000 0.000000 1.000000
    outer loop
      vertex 4.500000 -7.794229 12.000000
      vertex 1.097549 -10.442480 12.000000
      vertex 3.244678 -9.986093 12.000000
    endloop
  endfacet
  facet normal 0.000000 0.000000 1.000000
    outer loop
      vertex 4.500000 -7.794229 12.000000
      vertex -1.097549 -10.442480 12.000000
      vertex 1.097549 -10.442480 12.000000
    endloop
  endfacet
  facet normal 0.000000 0.000000 1.000000
    outer loop
      vertex 4.500000 -7.794229 12.000000
      vertex -4.500000 -7.794229 12.000000
      vertex -1.097549 -10.442480 12.000000
    endloop
  endfacet
  facet normal 0.000000 0.000000 1.000000
    outer loop
      vertex 9.000000 0.000000 12.000000
      vertex 7.025871 -7.803021 12.000000
      vertex 8.494678 -6.171745 12.000000
    endloop
  endfacet
  facet normal 0.000000 -0.000000 1.000000
    outer loop
      vertex 9.000000 0.000000 12.000000
      vertex 8.494678 -6.171745 12.000000
      vertex 9.592227 -4.270735 12.000000
    endloop
  endfacet
  facet normal 0.000000 0.000000 1.000000
    outer loop
      vertex 9.000000 0.000000 12.000000
      vertex 9.592227 -4.270735 12.000000
      vertex 10.270550 -2.183073 12.000000
    endloop
  endfacet
  facet normal 0.000000 0.000000 1.000000
    outer loop
      vertex -9.000000 0.000000 12.000000
      vertex -4.500000 7.794229 12.000000
      vertex -10.270550 2.183073 12.000000
    endloop
  endfacet
  facet normal 0.000000 0.000000 1.000000
    outer loop
      vertex -4.500000 -7.794229 5.000000
      vertex 4.500000 -7.794229 5.000000
      vertex 9.000000 0.000000 5.000000
    endloop
  endfacet
  facet normal 0.000000 0.000000 1.000000
    outer loop
      vertex 0.469303 -2.963065 5.000000
      vertex 0.000000 -3.000000 5.000000
      vertex -4.500000 -7.794229 5.000000
    endloop
  endfacet
  facet normal 0.000000 -0.000000 1.000000
    outer loop
      vertex 2.121320 -2.121320 5.000000
      vertex -4.500000 -7.794229 5.000000
      vertex 9.000000 0.000000 5.000000
    endloop
  endfacet
  facet normal 0.000000 0.000000 1.000000
    outer loop
      vertex -9.000000 0.000000 5.000000
      vertex -4.500000 -7.794229 5.000000
      vertex -4.500000 7.794229 5.000000
    endloop
  endfacet
  facet normal 0.000000 -0.000000 1.000000
    outer loop
      vertex -4.500000 7.794229 5.000000
      vertex -4.500000 -7.794229 5.000000
      vertex -3.000000 0.000000 5.000000
    endloop
  endfacet
  facet normal 0.000000 0.000000 1.000000
    outer loop
      vertex 1.361971 2.673020 5.000000
      vertex 1.763356 2.427051 5.000000
      vertex 4.500000 7.794229 5.000000
    endloop
  endfacet
  facet normal 0.000000 0.000000 1.000000
    outer loop
      vertex -4.500000 7.794229 5.000000
      vertex -3.000000 0.000000 5.000000
      vertex -2.963065 0.469303 5.000000
    endloop
  endfacet
  facet normal 0.000000 0.000000 1.000000
    outer loop
      vertex -4.500000 7.794229 5.000000
      vertex -2.963065 0.469303 5.000000
      vertex -2.853170 0.927051 5.000000
    endloop
  endfacet
  facet normal 0.000000 0.000000 1.000000
    outer loop
      vertex -0.927051 2.853170 5.000000
      vertex -0.469303 2.963065 5.000000
      vertex 4.500000 7.794229 5.000000
    endloop
  endfacet
  facet normal 0.000000 0.000000 1.000000
    outer loop
      vertex -4.500000 7.794229 5.000000
      vertex -2.853170 0.927051 5.000000
      vertex -2.673020 1.361971 5.000000
    endloop
  endfacet
  facet normal 0.000000 0.000000 1.000000
    outer loop
      vertex -1.361971 2.673020 5.000000
      vertex -0.927051 2.853170 5.000000
      vertex 4.500000 7.794229 5.000000
    endloop
  endfacet
  facet normal 0.000000 0.000000 1.000000
    outer loop
      vertex -4.500000 7.794229 5.000000
      vertex -2.673020 1.361971 5.000000
      vertex -2.427051 1.763356 5.000000
    endloop
  endfacet
  facet normal 0.000000 0.000000 1.000000
    outer loop
      vertex -4.500000 7.794229 5.000000
      vertex -2.121320 2.121320 5.000000
      vertex 4.500000 7.794229 5.000000
    endloop
  endfacet
  facet normal 0.000000 0.000000 1.000000
    outer loop
      vertex -4.500000 7.794229 5.000000
      vertex -2.427051 1.763356 5.000000
      vertex -2.121320 2.121320 5.000000
    endloop
  endfacet
  facet normal 0.000000 0.000000 1.000000
    outer loop
      vertex -2.121320 2.121320 5.000000
      vertex -1.763356 2.427051 5.000000
      vertex 4.500000 7.794229 5.000000
    endloop
  endfacet
  facet normal 0.000000 0.000000 1.000000
    outer loop
      vertex 0.000000 3.000000 5.000000
      vertex 0.469303 2.963065 5.000000
      vertex 4.500000 7.794229 5.000000
    endloop
  endfacet
  facet normal 0.000000 0.000000 1.000000
    outer loop
      vertex 0.469303 2.963065 5.000000
      vertex 0.927051 2.853170 5.000000
      vertex 4.500000 7.794229 5.000000
    endloop
  endfacet
  facet normal -0.000000 0.000000 1.000000
    outer loop
      vertex -2.121320 -2.121320 5.000000
      vertex -2.427051 -1.763356 5.000000
      vertex -4.500000 -7.794229 5.000000
    endloop
  endfacet
  facet normal 0.000000 0.000000 1.000000
    outer loop
      vertex 0.927051 2.853170 5.000000
      vertex 1.361971 2.673020 5.000000
      vertex 4.500000 7.794229 5.000000
    endloop
  endfacet
  facet normal 0.000000 -0.000000 1.000000
    outer loop
      vertex 4.500000 7.794229 5.000000
      vertex 1.763356 2.427051 5.000000
      vertex 9.000000 0.000000 5.000000
    endloop
  endfacet
  facet normal 0.000000 0.000000 1.000000
    outer loop
      vertex 1.763356 2.427051 5.000000
      vertex 2.121320 2.121320 5.000000
      vertex 9.000000 0.000000 5.000000
    endloop
  endfacet
  facet normal -0.000000 0.000000 1.000000
    outer loop
      vertex -1.361971 -2.673020 5.000000
      vertex -1.763356 -2.427051 5.000000
      vertex -4.500000 -7.794229 5.000000
    endloop
  endfacet
  facet normal 0.000000 0.000000 1.000000
    outer loop
      vertex 2.121320 2.121320 5.000000
      vertex 2.427051 1.763356 5.000000
      vertex 9.000000 0.000000 5.000000
    endloop
  endfacet
  facet normal 0.000000 0.000000 1.000000
    outer loop
      vertex 2.427051 1.763356 5.000000
      vertex 2.673020 1.361971 5.000000
      vertex 9.000000 0.000000 5.000000
    endloop
  endfacet
  facet normal 0.000000 0.000000 1.000000
    outer loop
      vertex 2.673020 1.361971 5.000000
      vertex 2.853170 0.927051 5.000000
      vertex 9.000000 0.000000 5.000000
    endloop
  endfacet
  facet normal 0.000000 0.000000 1.000000
    outer loop
      vertex 2.853170 0.927051 5.000000
      vertex 2.963065 0.469303 5.000000
      vertex 9.000000 0.000000 5.000000
    endloop
  endfacet
  facet normal 0.000000 0.000000 1.000000
    outer loop
      vertex 2.963065 0.469303 5.000000
      vertex 3.000000 0.000000 5.000000
      vertex 9.000000 0.000000 5.000000
    endloop
  endfacet
  facet normal 0.000000 -0.000000 1.000000
    outer loop
      vertex 3.000000 0.000000 5.000000
      vertex 2.963065 -0.469303 5.000000
      vertex 9.000000 0.000000 5.000000
    endloop
  endfacet
  facet normal 0.000000 -0.000000 1.000000
    outer loop
      vertex 2.963065 -0.469303 5.000000
      vertex 2.853170 -0.927051 5.000000
      vertex 9.000000 0.000000 5.000000
    endloop
  endfacet
  facet normal 0.000000 -0.000000 1.000000
    outer loop
      vertex 2.853170 -0.927051 5.000000
      vertex 2.673020 -1.361971 5.000000
      vertex 9.000000 0.000000 5.000000
    endloop
  endfacet
  facet normal 0.000000 -0.000000 1.000000
    outer loop
      vertex 2.673020 -1.361971 5.000000
      vertex 2.427051 -1.763356 5.000000
      vertex 9.000000 0.000000 5.000000
    endloop
  endfacet
  facet normal 0.000000 -0.000000 1.000000
    outer loop
      vertex 2.427051 -1.763356 5.000000
      vertex 2.121320 -2.121320 5.000000
      vertex 9.000000 0.000000 5.000000
    endloop
  endfacet
  facet normal 0.000000 -0.000000 1.000000
    outer loop
      vertex 1.763356 -2.427051 5.000000
      vertex -4.500000 -7.794229 5.000000
      vertex 2.121320 -2.121320 5.000000
    endloop
  endfacet
  facet normal 0.000000 0.000000 1.000000
    outer loop
      vertex 1.361971 -2.673020 5.000000
      vertex 0.927051 -2.853170 5.000000
      vertex -4.500000 -7.794229 5.000000
    endloop
  endfacet
  facet normal 0.000000 0.000000 1.000000
    outer loop
      vertex 0.927051 -2.853170 5.000000
      vertex 0.469303 -2.963065 5.000000
      vertex -4.500000 -7.794229 5.000000
    endloop
  endfacet
  facet normal -0.000000 0.000000 1.000000
    outer loop
      vertex 0.000000 -3.000000 5.000000
      vertex -0.469303 -2.963065 5.000000
      vertex -4.500000 -7.794229 5.000000
    endloop
  endfacet
  facet normal -0.000000 0.000000 1.000000
    outer loop
      vertex -0.469303 -2.963065 5.000000
      vertex -0.927051 -2.853170 5.000000
      vertex -4.500000 -7.794229 5.000000
    endloop
  endfacet
  facet normal -0.000000 0.000000 1.000000
    outer loop
      vertex -0.927051 -2.853170 5.000000
      vertex -1.361971 -2.673020 5.000000
      vertex -4.500000 -7.794229 5.000000
    endloop
  endfacet
  facet normal -0.000000 0.000000 1.000000
    outer loop
      vertex -1.763356 -2.427051 5.000000
      vertex -2.121320 -2.121320 5.000000
      vertex -4.500000 -7.794229 5.000000
    endloop
  endfacet
  facet normal 0.000000 0.000000 1.000000
    outer loop
      vertex 1.763356 -2.427051 5.000000
      vertex 1.361971 -2.673020 5.000000
      vertex -4.500000 -7.794229 5.000000
    endloop
  endfacet
  facet normal 0.000000 -0.000000 1.000000
    outer loop
      vertex -2.673020 -1.361971 5.000000
      vertex -4.500000 -7.794229 5.000000
      vertex -2.427051 -1.763356 5.000000
    endloop
  endfacet
  facet normal 0.000000 -0.000000 1.000000
    outer loop
      vertex -2.853170 -0.927051 5.000000
      vertex -4.500000 -7.794229 5.000000
      vertex -2.673020 -1.361971 5.000000
    endloop
  endfacet
  facet normal 0.000000 -0.000000 1.000000
    outer loop
      vertex -2.963065 -0.469303 5.000000
      vertex -4.500000 -7.794229 5.000000
      vertex -2.853170 -0.927051 5.000000
    endloop
  endfacet
  facet normal 0.000000 -0.000000 1.000000
    outer loop
      vertex -3.000000 0.000000 5.000000
      vertex -4.500000 -7.794229 5.000000
      vertex -2.963065 -0.469303 5.000000
    endloop
  endfacet
  facet normal 0.000000 0.000000 1.000000
    outer loop
      vertex -1.763356 2.427051 5.000000
      vertex -1.361971 2.673020 5.000000
      vertex 4.500000 7.794229 5.000000
    endloop
  endfacet
  facet normal 0.000000 0.000000 1.000000
    outer loop
      vertex -0.469303 2.963065 5.000000
      vertex 0.000000 3.000000 5.000000
      vertex 4.500000 7.794229 5.000000
    endloop
  endfacet
  facet normal 0.000000 1.000000 0.000000
    outer loop
      vertex 4.500000 -7.794229 12.000000
      vertex 4.500000 -7.794229 5.000000
      vertex -4.500000 -7.794229 12.000000
    endloop
  endfacet
  facet normal 0.000000 1.000000 -0.000000
    outer loop
      vertex -4.500000 -7.794229 12.000000
      vertex 4.500000 -7.794229 5.000000
      vertex -4.500000 -7.794229 5.000000
    endloop
  endfacet
  facet normal 0.866025 0.500000 0.000000
    outer loop
      vertex -9.000000 0.000000 12.000000
      vertex -4.500000 -7.794229 12.000000
      vertex -4.500000 -7.794229 5.000000
    endloop
  endfacet
  facet normal 0.866025 0.500000 0.000000
    outer loop
      vertex -9.000000 0.000000 5.000000
      vertex -9.000000 0.000000 12.000000
      vertex -4.500000 -7.794229 5.000000
    endloop
  endfacet
  facet normal -0.866025 0.500000 0.000000
    outer loop
      vertex 9.000000 0.000000 12.000000
      vertex 9.000000 0.000000 5.000000
      vertex 4.500000 -7.794229 12.000000
    endloop
  endfacet
  facet normal -0.866025 0.500000 0.000000
    outer loop
      vertex 4.500000 -7.794229 12.000000
      vertex 9.000000 0.000000 5.000000
      vertex 4.500000 -7.794229 5.000000
    endloop
  endfacet
  facet normal -0.866025 -0.500000 0.000000
    outer loop
      vertex 9.000000 0.000000 12.000000
      vertex 4.500000 7.794229 12.000000
      vertex 9.000000 0.000000 5.000000
    endloop
  endfacet
  facet normal -0.866025 -0.500000 0.000000
    outer loop
      vertex 9.000000 0.000000 5.000000
      vertex 4.500000 7.794229 12.000000
      vertex 4.500000 7.794229 5.000000
    endloop
  endfacet
  facet normal 0.000000 -1.000000 0.000000
    outer loop
      vertex 4.500000 7.794229 5.000000
      vertex 4.500000 7.794229 12.000000
      vertex -4.500000 7.794229 12.000000
    endloop
  endfacet
  facet normal -0.000000 -1.000000 -0.000000
    outer loop
      vertex -4.500000 7.794229 5.000000
      vertex 4.500000 7.794229 5.000000
      vertex -4.500000 7.794229 12.000000
    endloop
  endfacet
  facet normal 0.866025 -0.500000 0.000000
    outer loop
      vertex -4.500000 7.794229 5.000000
      vertex -4.500000 7.794229 12.000000
      vertex -9.000000 0.000000 12.000000
    endloop
  endfacet
  facet normal 0.866025 -0.500000 0.000000
    outer loop
      vertex -9.000000 0.000000 5.000000
      vertex -4.500000 7.794229 5.000000
      vertex -9.000000 0.000000 12.000000
    endloop
  endfacet
endsolid OpenSCAD_Model
